<svg width="512" height="512" viewBox="0 0 100 100" fill="none" xmlns="http://www.w3.org/2000/svg">
  <!-- Light: White Bubble (with Navy Stroke), Navy Text -->
  <path 
    d="M50 5 C75 5 95 25 95 50 C95 75 75 95 50 95 C41 95 31 92 23 86 L10 93 L18 78 C10 70 5 60 5 50 C5 25 25 5 50 5 Z" 
    fill="white" 
    stroke="#001F3F"
    stroke-width="5" 
    stroke-linejoin="round" 
  />

  <g transform="translate(-6, -5)">
    <!-- Text: Navy -->
    <g stroke="#001F3F" stroke-width="5" stroke-linecap="butt" stroke-linejoin="miter">
        <path d="M24 36 L35 50 V64" fill="none" /> 
        <path d="M46 36 L35 50" fill="none" />
    </g>

    <g>
        <path d="M52 46 C 56 43 66 43 66 49 V 64" stroke="#001F3F" stroke-width="4.5" stroke-linecap="butt" fill="none" />
        <path 
            d="M 66 52 L 59 52 Q 52 52 52 57 Q 52 62 59 62 Q 63 62 66 58"
            stroke="#001F3F" 
            stroke-width="4.5"
            stroke-linecap="butt"
            stroke-linejoin="round"
            fill="none"
        />
    </g>

    <path d="M80 43 V64" stroke="#001F3F" stroke-width="5" stroke-linecap="butt" />
    <circle cx="80" cy="35" r="4" fill="#001F3F" />
    
    <path 
        d="M36 74 Q 56 94 76 74" 
        stroke="#001F3F" 
        stroke-width="5" 
        stroke-linecap="round" 
        fill="none"
    />
  </g>
</svg>
